PathFileType   4   (X/Y/Z)
DataRate  CameraRate  NumFrames  NumMarkers  Units  OrigDataRate  OrigDataStartFrame  OrigNumFrames  
  120.0      120.0        9         37         mm      120.0          66        105
Frame#      Time                    midhip                           hip_r                           hip_l                          knee_r                          knee_l                         ankle_r                         ankle_l                         midasis                          asis_r                          asis_l                          psis_r                          psis_l                    epicondLat_r                    epicondLat_l                    epicondMed_r                    epicondMed_l                  malleolusLat_r                  malleolusLat_l                 malleolusMedv_r                 malleolusMedv_l                    sternalnotch                  xyphoidprocess                            neck                           toe_r                           toe_l                     thighwand_r                     thighwand_l                     upperleg1_r                     upperleg1_l                     upperleg2_r                     upperleg2_l                     shankwand_r                     shankwand_l                     lowerleg1_r                     lowerleg1_l                   subclavicle_r                   subclavicle_l            
              X1          Y1          Z1          X2          Y2          Z2          X3          Y3          Z3          X4          Y4          Z4          X5          Y5          Z5          X6          Y6          Z6          X7          Y7          Z7          X8          Y8          Z8          X9          Y9          Z9          X10          Y10          Z10          X11          Y11          Z11          X12          Y12          Z12          X13          Y13          Z13          X14          Y14          Z14          X15          Y15          Z15          X16          Y16          Z16          X17          Y17          Z17          X18          Y18          Z18          X19          Y19          Z19          X20          Y20          Z20          X21          Y21          Z21          X22          Y22          Z22          X23          Y23          Z23          X24          Y24          Z24          X25          Y25          Z25          X26          Y26          Z26          X27          Y27          Z27          X28          Y28          Z28          X29          Y29          Z29          X30          Y30          Z30          X31          Y31          Z31          X32          Y32          Z32          X33          Y33          Z33          X34          Y34          Z34          X35          Y35          Z35          X36          Y36          Z36          X37          Y37          Z37          

	66	0.66667	1953.502	761.663	-281.385	1945.466	761.156	-224.524	1961.539	762.169	-338.245	1987.325	415.878	-217.643	1929.924	410.095	-335.544	2013.581	65.406	-233.676	1669.611	164.321	-326.858	1986.356	834.999	-276.846	1986.038	840.479	-165.801	1986.675	829.519	-387.890	1809.535	861.916	-246.157	1816.681	858.791	-298.474	2014.502	421.184	-158.626	1932.202	395.402	-393.923	1996.076	419.314	-275.966	1953.690	403.020	-271.741	2008.007	63.497	-196.642	1663.676	169.355	-362.518	2013.807	63.312	-267.290	1666.370	170.137	-293.268	1984.798	1181.951	-272.384	1987.324	1080.140	-280.777	1881.634	1258.117	-266.840	2095.466	48.065	-225.042	1704.520	78.206	-322.829	2101.180	581.436	-188.843	2050.604	554.210	-409.769	2043.641	606.959	-148.154	2028.996	599.467	-345.130	2045.335	550.160	-154.631	2023.031	541.178	-335.970	2129.483	187.791	-202.653	1736.470	239.508	-454.009	2053.203	170.093	-219.300	1731.012	235.517	-375.038	1985.158	1178.782	-216.761	1989.849	1184.944	-321.602
	67	0.67500	1961.710	762.804	-280.735	1953.566	762.278	-223.890	1969.854	763.329	-337.579	1990.677	416.194	-216.925	1949.054	410.933	-335.901	2013.665	65.399	-233.425	1688.465	165.081	-326.276	1994.894	836.066	-276.019	1994.386	841.385	-164.839	1995.402	830.747	-387.200	1817.947	863.648	-245.985	1824.979	860.620	-298.346	2016.344	421.315	-157.817	1949.621	397.018	-394.285	2000.763	419.661	-276.139	1971.813	403.361	-273.505	2007.845	63.473	-196.430	1682.229	170.249	-361.866	2014.767	62.756	-267.004	1685.810	170.360	-292.651	1994.567	1183.409	-272.109	1996.848	1081.601	-280.611	1891.855	1259.672	-267.001	2095.587	48.084	-224.762	1724.792	80.362	-322.580	2105.812	579.940	-186.911	2064.735	558.030	-409.013	2048.368	606.403	-147.309	2041.292	602.759	-344.448	2049.544	549.965	-153.815	2037.154	544.355	-335.895	2130.028	187.146	-201.519	1753.943	241.128	-453.562	2053.737	170.007	-219.420	1749.508	236.406	-374.618	1994.857	1180.159	-216.160	1999.684	1186.463	-321.648
	68	0.68333	1969.920	763.915	-280.161	1961.670	763.329	-223.332	1978.169	764.501	-336.990	1980.120	422.197	-216.427	1967.243	411.567	-336.253	2013.705	65.394	-233.261	1707.995	164.947	-325.659	2003.392	837.099	-275.207	2002.706	842.189	-163.906	2004.077	832.009	-386.509	1826.249	865.323	-245.655	1833.194	862.396	-298.132	2018.244	421.465	-157.194	1966.850	398.851	-394.654	1992.764	426.352	-280.281	1988.933	404.787	-272.683	2007.724	63.463	-196.291	1701.453	170.193	-361.183	2015.286	62.430	-266.812	1705.920	169.359	-292.020	2004.170	1184.647	-272.171	2006.147	1082.817	-280.478	1901.885	1261.063	-267.029	2095.655	48.059	-224.551	1746.229	81.825	-322.350	2110.417	578.450	-185.164	2078.742	561.941	-408.087	2053.383	606.346	-146.291	2053.387	605.886	-343.293	2049.609	548.725	-154.150	2050.816	547.579	-334.734	2130.613	186.569	-200.761	1771.815	242.019	-453.166	2054.161	169.881	-219.449	1768.567	236.395	-373.941	2004.550	1181.495	-216.037	2009.208	1187.600	-321.907
	69	0.69167	1978.144	765.038	-279.653	1969.794	764.327	-222.840	1986.494	765.749	-336.466	2018.580	410.434	-215.865	1985.137	412.832	-336.532	2013.718	65.395	-233.190	1728.130	163.930	-325.035	2011.855	838.122	-274.390	2010.999	842.892	-162.981	2012.710	833.353	-385.799	1834.513	866.948	-245.217	1841.464	864.108	-297.837	2020.231	421.611	-156.749	1983.876	400.845	-394.989	2027.471	413.909	-271.397	2005.693	406.227	-272.654	2007.637	63.470	-196.236	1721.278	169.205	-360.496	2015.458	62.351	-266.727	1726.399	168.019	-291.390	2013.635	1185.651	-272.521	2015.140	1083.805	-280.731	1911.655	1262.549	-267.066	2095.675	47.993	-224.407	1768.676	82.611	-322.207	2115.052	576.975	-183.625	2092.561	565.890	-407.076	2057.975	606.289	-144.956	2065.517	609.261	-342.210	2064.657	549.207	-150.997	2064.371	550.607	-333.796	2131.256	186.022	-200.311	1790.036	242.181	-452.824	2054.693	169.632	-219.283	1787.733	236.214	-373.425	2014.133	1182.567	-216.625	2018.567	1188.519	-322.030
	70	0.70000	1986.349	766.206	-279.164	1977.902	765.299	-222.369	1994.796	767.113	-335.960	1985.978	423.272	-215.889	2002.859	414.628	-336.711	2013.726	65.410	-233.211	1748.828	162.069	-324.429	2020.290	839.153	-273.550	2019.276	843.503	-162.044	2021.304	834.803	-385.056	1842.770	868.531	-244.715	1849.858	865.746	-297.483	2022.319	421.733	-156.452	2000.680	402.943	-395.256	2000.595	427.789	-280.645	2022.198	407.780	-273.446	2007.580	63.498	-196.268	1741.669	167.332	-359.830	2015.643	62.111	-266.703	1747.793	166.379	-290.824	2023.094	1186.493	-272.916	2024.232	1084.631	-280.987	1921.302	1263.778	-266.925	2095.664	47.902	-224.320	1792.030	82.807	-322.217	2119.712	575.500	-182.304	2106.127	569.833	-406.074	2062.087	605.804	-143.959	2077.506	612.716	-341.392	2057.224	547.703	-152.432	2077.757	553.844	-333.287	2131.960	185.465	-200.076	1808.581	241.635	-452.525	2055.228	169.174	-219.280	1807.298	235.637	-373.602	2023.726	1183.488	-217.066	2027.907	1189.272	-322.393
	71	0.70833	1994.506	767.429	-278.689	1985.969	766.259	-221.911	2003.043	768.598	-335.466	1988.715	423.360	-215.847	2019.741	416.461	-336.804	2013.753	65.445	-233.311	1770.086	159.430	-323.863	2028.700	840.188	-272.678	2027.546	844.027	-161.085	2029.855	836.348	-384.271	1851.066	870.051	-244.212	1858.347	867.308	-297.118	2024.513	421.816	-156.261	2017.236	405.097	-395.447	2004.225	427.206	-279.823	2038.201	409.473	-273.526	2007.551	63.548	-196.376	1762.622	164.642	-359.210	2015.678	61.916	-266.761	1769.150	164.077	-290.243	2032.510	1187.337	-273.226	2033.504	1085.450	-280.998	1930.414	1265.018	-266.561	2095.641	47.805	-224.279	1816.221	82.520	-322.422	2124.393	574.012	-181.190	2119.381	573.735	-405.171	2066.631	605.136	-143.531	2089.266	615.827	-340.250	2061.121	547.177	-151.712	2090.801	557.094	-332.408	2132.714	184.867	-199.961	1827.467	240.425	-452.251	2055.636	168.659	-219.300	1826.638	234.550	-373.507	2033.244	1184.490	-217.266	2037.234	1189.969	-322.823
	72	0.71667	2002.633	768.671	-278.243	1994.019	767.194	-221.484	2011.247	770.149	-335.001	1991.040	423.517	-215.856	2035.100	419.150	-336.823	2013.819	65.504	-233.470	1791.905	156.098	-323.364	2037.092	841.208	-271.780	2035.820	844.470	-160.117	2038.363	837.946	-383.444	1859.394	871.489	-243.749	1866.872	868.778	-296.784	2026.815	421.852	-156.129	2033.509	407.259	-395.566	2007.348	426.422	-278.967	2053.164	411.332	-273.862	2007.558	63.622	-196.544	1784.150	161.219	-358.661	2015.426	62.155	-266.932	1790.469	161.115	-289.679	2041.899	1188.184	-273.384	2042.989	1086.294	-281.108	1939.189	1266.134	-266.268	2095.620	47.717	-224.269	1841.182	81.834	-322.849	2129.096	572.503	-180.273	2132.287	577.563	-404.439	2071.523	604.203	-143.514	2100.966	618.997	-338.698	2065.133	546.563	-151.258	2103.461	560.367	-331.351	2133.507	184.204	-199.888	1846.751	238.615	-451.990	2056.112	168.306	-219.053	1846.044	233.205	-372.945	2042.602	1185.367	-217.489	2046.650	1190.794	-322.912
	73	0.72500	2010.765	769.872	-277.772	2002.096	768.073	-221.031	2019.434	771.671	-334.513	1992.432	423.919	-215.821	2049.951	421.598	-336.827	2013.938	65.588	-233.664	1814.281	152.150	-322.961	2045.472	842.181	-270.877	2044.108	844.827	-159.168	2046.836	839.534	-382.587	1867.811	872.799	-243.390	1875.372	870.125	-296.509	2029.218	421.838	-156.018	2049.461	409.380	-395.619	2009.164	425.854	-277.805	2067.780	414.097	-273.406	2007.607	63.722	-196.750	1806.259	157.136	-358.217	2015.143	62.557	-267.151	1812.654	157.287	-289.256	2051.350	1188.876	-273.413	2052.428	1087.003	-281.344	1948.529	1266.910	-266.082	2095.611	47.645	-224.279	1866.843	80.798	-323.513	2133.834	570.966	-179.546	2144.824	581.281	-403.917	2076.637	603.261	-143.353	2112.659	622.378	-338.186	2069.007	545.564	-150.728	2116.002	563.896	-330.823	2134.335	183.466	-199.821	1866.501	236.272	-451.747	2056.733	167.967	-218.693	1866.229	231.142	-372.477	2052.073	1185.935	-217.318	2056.084	1191.597	-323.144
	74	0.73333	2018.955	770.959	-277.263	2010.252	768.846	-220.538	2027.657	773.071	-333.988	1994.077	424.497	-215.719	2065.263	422.662	-336.849	2014.114	65.697	-233.873	1837.204	147.650	-322.685	2053.853	843.067	-270.000	2052.421	845.090	-158.274	2055.285	841.044	-381.726	1876.340	873.935	-243.138	1883.870	871.288	-296.297	2031.723	421.781	-155.903	2065.059	411.412	-395.615	2010.980	425.722	-276.779	2082.805	417.500	-271.191	2007.708	63.846	-196.970	1828.946	152.458	-357.912	2015.186	62.729	-267.357	1835.469	152.418	-288.959	2060.677	1189.272	-273.343	2061.338	1087.394	-281.263	1958.310	1267.632	-266.036	2095.617	47.592	-224.300	1893.120	79.443	-324.422	2138.611	569.398	-179.008	2156.987	584.848	-403.621	2081.770	602.564	-143.004	2124.064	625.724	-338.889	2072.961	544.619	-150.177	2128.470	567.190	-330.628	2135.190	182.652	-199.754	1886.745	233.461	-451.551	2057.509	167.604	-218.590	1886.864	228.018	-371.937	2061.562	1186.323	-217.002	2065.270	1191.982	-323.337
